<svg width="111" height="28" viewBox="0 0 111 28" fill="none" xmlns="http://www.w3.org/2000/svg">
<path d="M12.5455 10.6797C12.4311 10.2822 12.2705 9.93099 12.0636 9.62606C11.8567 9.3157 11.6035 9.05433 11.304 8.84197C11.0099 8.62417 10.6723 8.4581 10.2912 8.34375C9.91548 8.2294 9.49893 8.17223 9.04155 8.17223C8.18667 8.17223 7.43525 8.38459 6.78729 8.8093C6.14477 9.23402 5.64382 9.85204 5.28445 10.6634C4.92507 11.4692 4.74538 12.4548 4.74538 13.62C4.74538 14.7853 4.92235 15.7763 5.27628 16.593C5.63021 17.4098 6.13116 18.0333 6.77912 18.4634C7.42708 18.8881 8.19212 19.1005 9.07422 19.1005C9.87465 19.1005 10.558 18.9589 11.1243 18.6758C11.696 18.3872 12.1316 17.9815 12.4311 17.4588C12.736 16.9361 12.8885 16.3181 12.8885 15.6048L13.6072 15.7109H9.29474V13.0483H16.2944V15.1555C16.2944 16.6257 15.984 17.889 15.3633 18.9453C14.7425 19.9962 13.8877 20.8075 12.7987 21.3793C11.7096 21.9455 10.4627 22.2287 9.05788 22.2287C7.4897 22.2287 6.1121 21.8829 4.92507 21.1914C3.73804 20.4944 2.81238 19.5062 2.14808 18.2266C1.48923 16.9415 1.1598 15.4169 1.1598 13.6527C1.1598 12.2969 1.35582 11.0881 1.74787 10.0263C2.14536 8.95904 2.70076 8.05516 3.41406 7.31463C4.12737 6.5741 4.95774 6.01053 5.90518 5.62393C6.85263 5.23733 7.87902 5.04403 8.98438 5.04403C9.93182 5.04403 10.8139 5.18288 11.6307 5.46058C12.4474 5.73284 13.1716 6.11944 13.8033 6.62038C14.4403 7.12133 14.9603 7.71757 15.3633 8.40909C15.7662 9.09517 16.0249 9.85204 16.1392 10.6797H12.5455ZM23.9129 22.245C22.6224 22.245 21.5116 21.9837 20.5805 21.4609C19.6548 20.9328 18.9415 20.1868 18.4406 19.223C17.9396 18.2538 17.6892 17.1076 17.6892 15.7844C17.6892 14.494 17.9396 13.3614 18.4406 12.3867C18.9415 11.4121 19.6467 10.6525 20.556 10.108C21.4708 9.56345 22.5435 9.29119 23.774 9.29119C24.6017 9.29119 25.3722 9.4246 26.0855 9.69141C26.8042 9.95277 27.4304 10.3475 27.964 10.8757C28.5031 11.4039 28.9224 12.0682 29.2218 12.8686C29.5213 13.6636 29.6711 14.5947 29.6711 15.6619V16.6175H19.0777V14.4613H26.3958C26.3958 13.9603 26.2869 13.5166 26.0691 13.13C25.8513 12.7434 25.5491 12.4412 25.1625 12.2234C24.7814 12.0001 24.3376 11.8885 23.8312 11.8885C23.303 11.8885 22.8348 12.011 22.4264 12.256C22.0235 12.4956 21.7076 12.8196 21.4789 13.228C21.2503 13.6309 21.1332 14.0801 21.1277 14.5756V16.6257C21.1277 17.2464 21.2421 17.7828 21.4708 18.2347C21.7049 18.6867 22.0343 19.0352 22.4591 19.2802C22.8838 19.5252 23.3874 19.6477 23.9701 19.6477C24.3567 19.6477 24.7106 19.5933 25.0319 19.4844C25.3531 19.3755 25.6281 19.2121 25.8568 18.9943C26.0855 18.7765 26.2597 18.5097 26.3795 18.1939L29.5976 18.4062C29.4342 19.1795 29.0993 19.8546 28.5929 20.4318C28.092 21.0036 27.444 21.45 26.649 21.7713C25.8595 22.0871 24.9475 22.245 23.9129 22.245ZM41.6899 13.032L38.5045 13.228C38.45 12.9557 38.333 12.7107 38.1533 12.4929C37.9736 12.2696 37.7367 12.0927 37.4427 11.962C37.1541 11.8259 36.8084 11.7578 36.4054 11.7578C35.8664 11.7578 35.4117 11.8722 35.0414 12.1009C34.6712 12.3241 34.486 12.6236 34.486 12.9993C34.486 13.2988 34.6058 13.552 34.8454 13.7589C35.085 13.9658 35.4961 14.1319 36.0787 14.2571L38.3493 14.7145C39.569 14.965 40.4783 15.3679 41.0773 15.9233C41.6763 16.4787 41.9757 17.2083 41.9757 18.1122C41.9757 18.9344 41.7334 19.6559 41.2488 20.2766C40.7697 20.8974 40.1108 21.382 39.2723 21.7305C38.4392 22.0735 37.4781 22.245 36.3891 22.245C34.7283 22.245 33.4052 21.8993 32.4196 21.2077C31.4395 20.5108 30.8651 19.5633 30.6963 18.3654L34.1185 18.1857C34.2219 18.6921 34.4724 19.0787 34.8699 19.3455C35.2674 19.6069 35.7765 19.7376 36.3973 19.7376C37.0071 19.7376 37.4972 19.6205 37.8674 19.3864C38.2431 19.1468 38.4337 18.8391 38.4392 18.4634C38.4337 18.1476 38.3003 17.889 38.0389 17.6875C37.7776 17.4806 37.3746 17.3227 36.8301 17.2138L34.6576 16.7809C33.4324 16.5359 32.5204 16.1112 31.9214 15.5067C31.3279 14.9023 31.0311 14.1319 31.0311 13.1953C31.0311 12.3894 31.2489 11.6952 31.6845 11.1126C32.1256 10.5299 32.7436 10.0807 33.5386 9.76491C34.339 9.4491 35.2756 9.29119 36.3483 9.29119C37.9328 9.29119 39.1797 9.62607 40.089 10.2958C41.0038 10.9656 41.5374 11.8776 41.6899 13.032ZM49.145 22.245C47.86 22.245 46.7546 21.9728 45.829 21.4283C44.9088 20.8783 44.2009 20.116 43.7054 19.1413C43.2153 18.1667 42.9703 17.045 42.9703 15.7763C42.9703 14.4912 43.2181 13.3641 43.7136 12.3949C44.2145 11.4202 44.9251 10.6606 45.8453 10.1161C46.7655 9.56617 47.86 9.29119 49.1287 9.29119C50.2231 9.29119 51.1815 9.48994 52.0037 9.88743C52.8259 10.2849 53.4766 10.843 53.9557 11.5618C54.4349 12.2805 54.699 13.1245 54.748 14.0938H51.4646C51.3721 13.4676 51.127 12.9639 50.7295 12.5827C50.3375 12.1961 49.8229 12.0028 49.1859 12.0028C48.6468 12.0028 48.1758 12.1499 47.7729 12.4439C47.3754 12.7325 47.065 13.1545 46.8418 13.7099C46.6185 14.2653 46.5069 14.9377 46.5069 15.7273C46.5069 16.5277 46.6158 17.2083 46.8336 17.7692C47.0568 18.33 47.3699 18.7575 47.7729 19.0515C48.1758 19.3455 48.6468 19.4925 49.1859 19.4925C49.5834 19.4925 49.94 19.4109 50.2558 19.2475C50.5771 19.0842 50.8412 18.8473 51.0481 18.5369C51.2604 18.2211 51.3993 17.8427 51.4646 17.4016H54.748C54.6936 18.36 54.4322 19.204 53.9639 19.9336C53.5011 20.6578 52.8613 21.2241 52.0445 21.6325C51.2278 22.0408 50.2613 22.245 49.145 22.245ZM61.954 22.245C60.6853 22.245 59.5882 21.9755 58.6625 21.4364C57.7423 20.8919 57.0317 20.1351 56.5308 19.1658C56.0298 18.1912 55.7793 17.0613 55.7793 15.7763C55.7793 14.4804 56.0298 13.3478 56.5308 12.3786C57.0317 11.4039 57.7423 10.647 58.6625 10.108C59.5882 9.56345 60.6853 9.29119 61.954 9.29119C63.2227 9.29119 64.3172 9.56345 65.2374 10.108C66.1631 10.647 66.8764 11.4039 67.3773 12.3786C67.8783 13.3478 68.1288 14.4804 68.1288 15.7763C68.1288 17.0613 67.8783 18.1912 67.3773 19.1658C66.8764 20.1351 66.1631 20.8919 65.2374 21.4364C64.3172 21.9755 63.2227 22.245 61.954 22.245ZM61.9704 19.5497C62.5476 19.5497 63.0294 19.3864 63.416 19.0597C63.8026 18.7275 64.094 18.2756 64.29 17.7038C64.4915 17.1321 64.5922 16.4814 64.5922 15.7518C64.5922 15.0221 64.4915 14.3714 64.29 13.7997C64.094 13.228 63.8026 12.776 63.416 12.4439C63.0294 12.1117 62.5476 11.9457 61.9704 11.9457C61.3878 11.9457 60.8977 12.1117 60.5002 12.4439C60.1082 12.776 59.8114 13.228 59.6099 13.7997C59.4139 14.3714 59.3159 15.0221 59.3159 15.7518C59.3159 16.4814 59.4139 17.1321 59.6099 17.7038C59.8114 18.2756 60.1082 18.7275 60.5002 19.0597C60.8977 19.3864 61.3878 19.5497 61.9704 19.5497ZM69.7012 22V9.45455H73.0172V11.668H73.1643C73.4256 10.9329 73.8612 10.353 74.4711 9.92827C75.0809 9.50355 75.8106 9.29119 76.66 9.29119C77.5203 9.29119 78.2527 9.50627 78.8571 9.93643C79.4615 10.3611 79.8644 10.9383 80.0659 11.668H80.1966C80.4525 10.9492 80.9153 10.3748 81.5851 9.9446C82.2603 9.509 83.058 9.29119 83.9782 9.29119C85.1489 9.29119 86.099 9.66418 86.8287 10.4102C87.5638 11.1507 87.9313 12.2016 87.9313 13.5629V22H84.4601V14.2489C84.4601 13.552 84.2749 13.0292 83.9047 12.6808C83.5344 12.3323 83.0716 12.158 82.5162 12.158C81.8845 12.158 81.3918 12.3595 81.0378 12.7624C80.6839 13.1599 80.5069 13.6854 80.5069 14.3388V22H77.1337V14.1754C77.1337 13.5601 76.9568 13.0701 76.6028 12.7053C76.2543 12.3404 75.7942 12.158 75.2225 12.158C74.8359 12.158 74.4874 12.256 74.177 12.4521C73.8721 12.6426 73.6298 12.9122 73.4501 13.2607C73.2704 13.6037 73.1806 14.0066 73.1806 14.4695V22H69.7012Z" fill="white"/>
<rect x="94.5" y="6.5" width="16" height="15" rx="3.5" stroke="white"/>
<path d="M101.95 10.7273H103.705V15.4183C103.705 15.9605 103.576 16.4328 103.317 16.8352C103.059 17.2353 102.7 17.5455 102.238 17.7656C101.776 17.9834 101.24 18.0923 100.629 18.0923C100.011 18.0923 99.4716 17.9834 99.0099 17.7656C98.5483 17.5455 98.1896 17.2353 97.9339 16.8352C97.6783 16.4328 97.5504 15.9605 97.5504 15.4183V10.7273H99.3082V15.2656C99.3082 15.5166 99.3627 15.7403 99.4716 15.9368C99.5829 16.1333 99.7379 16.2872 99.9368 16.3984C100.136 16.5097 100.366 16.5653 100.629 16.5653C100.892 16.5653 101.122 16.5097 101.318 16.3984C101.517 16.2872 101.672 16.1333 101.783 15.9368C101.895 15.7403 101.95 15.5166 101.95 15.2656V10.7273ZM106.564 10.7273V18H104.806V10.7273H106.564Z" fill="white"/>
</svg>
