<svg width="22" height="18" viewBox="0 0 22 18" fill="none" xmlns="http://www.w3.org/2000/svg">
<g clip-path="url(#clip0_4483_3639)">
<path d="M18.2298 13.9163C17.2687 12.6293 15.153 11.25 10.8283 11.25C6.5035 11.25 4.38917 12.6281 3.42676 13.9163C4.31348 14.8401 5.43946 15.586 6.72091 16.0982C8.00236 16.6105 9.4063 16.876 10.8283 16.875C12.2502 16.876 13.6542 16.6105 14.9356 16.0982C16.2171 15.586 17.3431 14.8401 18.2298 13.9163Z" fill="white"/>
<path fill-rule="evenodd" clip-rule="evenodd" d="M10.8284 10.125C11.9054 10.125 12.9383 9.76942 13.6998 9.13649C14.4614 8.50355 14.8892 7.64511 14.8892 6.75C14.8892 5.85489 14.4614 4.99645 13.6998 4.36351C12.9383 3.73058 11.9054 3.375 10.8284 3.375C9.7514 3.375 8.71852 3.73058 7.95696 4.36351C7.19541 4.99645 6.76758 5.85489 6.76758 6.75C6.76758 7.64511 7.19541 8.50355 7.95696 9.13649C8.71852 9.76942 9.7514 10.125 10.8284 10.125Z" fill="white"/>
<path fill-rule="evenodd" clip-rule="evenodd" d="M10.8288 1.125C8.31586 1.125 5.90579 1.95468 4.12884 3.43153C2.35189 4.90838 1.35361 6.91142 1.35361 9C1.35361 11.0886 2.35189 13.0916 4.12884 14.5685C5.90579 16.0453 8.31586 16.875 10.8288 16.875C13.3418 16.875 15.7519 16.0453 17.5289 14.5685C19.3058 13.0916 20.3041 11.0886 20.3041 9C20.3041 6.91142 19.3058 4.90838 17.5289 3.43153C15.7519 1.95468 13.3418 1.125 10.8288 1.125ZM0 9C0 6.61305 1.14089 4.32387 3.1717 2.63604C5.2025 0.948212 7.95686 0 10.8288 0C13.7008 0 16.4552 0.948212 18.486 2.63604C20.5168 4.32387 21.6577 6.61305 21.6577 9C21.6577 11.3869 20.5168 13.6761 18.486 15.364C16.4552 17.0518 13.7008 18 10.8288 18C7.95686 18 5.2025 17.0518 3.1717 15.364C1.14089 13.6761 0 11.3869 0 9Z" fill="white"/>
</g>
<defs>
<clipPath id="clip0_4483_3639">
<rect width="21.6577" height="18" fill="white"/>
</clipPath>
</defs>
</svg>
