<svg width="51" height="42" viewBox="0 0 51 42" fill="none" xmlns="http://www.w3.org/2000/svg">
<path fill-rule="evenodd" clip-rule="evenodd" d="M37.6464 9.1875C38.0624 9.1875 38.4614 9.32578 38.7555 9.57192C39.0497 9.81806 39.215 10.1519 39.215 10.5V31.5C39.215 31.8481 39.0497 32.1819 38.7555 32.4281C38.4614 32.6742 38.0624 32.8125 37.6464 32.8125C37.2303 32.8125 36.8314 32.6742 36.5372 32.4281C36.243 32.1819 36.0778 31.8481 36.0778 31.5V10.5C36.0778 10.1519 36.243 9.81806 36.5372 9.57192C36.8314 9.32578 37.2303 9.1875 37.6464 9.1875Z" fill="white"/>
<path d="M36.3789 22.8305L16.4169 32.522C14.7228 33.3437 12.5488 32.3488 12.5488 30.6924V11.3094C12.5488 9.65566 14.7197 8.65816 16.4169 9.48241L36.3789 19.1739C36.7643 19.358 37.0846 19.6241 37.3074 19.9452C37.5302 20.2663 37.6476 20.6309 37.6476 21.0022C37.6476 21.3735 37.5302 21.7382 37.3074 22.0593C37.0846 22.3804 36.7643 22.6465 36.3789 22.8305Z" fill="#FFFEFE"/>
</svg>
