<svg width="49" height="42" viewBox="0 0 49 42" fill="none" xmlns="http://www.w3.org/2000/svg">
<path fill-rule="evenodd" clip-rule="evenodd" d="M12.25 9.1875C11.8439 9.1875 11.4544 9.32578 11.1672 9.57192C10.8801 9.81806 10.7188 10.1519 10.7188 10.5V31.5C10.7188 31.8481 10.8801 32.1819 11.1672 32.4281C11.4544 32.6742 11.8439 32.8125 12.25 32.8125C12.6561 32.8125 13.0456 32.6742 13.3328 32.4281C13.6199 32.1819 13.7812 31.8481 13.7812 31.5V10.5C13.7812 10.1519 13.6199 9.81806 13.3328 9.57192C13.0456 9.32578 12.6561 9.1875 12.25 9.1875Z" fill="white"/>
<path d="M13.4873 22.8305L32.9739 32.522C34.6277 33.3437 36.75 32.3488 36.75 30.6924V11.3094C36.75 9.65566 34.6308 8.65816 32.9739 9.48241L13.4873 19.1739C13.1111 19.358 12.7984 19.6241 12.5809 19.9452C12.3634 20.2663 12.2488 20.6309 12.2488 21.0022C12.2488 21.3735 12.3634 21.7382 12.5809 22.0593C12.7984 22.3804 13.1111 22.6465 13.4873 22.8305Z" fill="#FFFEFE"/>
</svg>
